<mxfile host="app.diagrams.net" modified="2023-09-18T07:15:38.697Z" agent="Mozilla/5.0 (Macintosh; Intel Mac OS X 10_15_7) AppleWebKit/537.36 (KHTML, like Gecko) Chrome/119.0.0.0 Safari/537.36" etag="NPGKj3MfWO0NNRKC2bkp" version="21.7.4" type="github">
  <diagram name="低代码" id="03018318-947c-dd8e-b7a3-06fadd420f32">
    <mxGraphModel dx="1741" dy="1056" grid="1" gridSize="10" guides="1" tooltips="1" connect="1" arrows="1" fold="1" page="1" pageScale="1" pageWidth="1100" pageHeight="850" background="none" math="0" shadow="0">
      <root>
        <mxCell id="0" />
        <mxCell id="1" parent="0" />
        <mxCell id="uw5OpCNFV-HiSpu1PvvK-25" style="edgeStyle=orthogonalEdgeStyle;rounded=0;sketch=1;hachureGap=4;jiggle=2;curveFitting=1;orthogonalLoop=1;jettySize=auto;html=1;entryX=0;entryY=0.5;entryDx=0;entryDy=0;fontFamily=Comic Sans MS;fontSize=16;labelBackgroundColor=none;strokeColor=#B5739D;fontColor=default;curved=1;" edge="1" parent="1" source="uw5OpCNFV-HiSpu1PvvK-4" target="uw5OpCNFV-HiSpu1PvvK-24">
          <mxGeometry relative="1" as="geometry" />
        </mxCell>
        <mxCell id="uw5OpCNFV-HiSpu1PvvK-106" style="edgeStyle=orthogonalEdgeStyle;rounded=0;sketch=1;hachureGap=4;jiggle=2;curveFitting=1;orthogonalLoop=1;jettySize=auto;html=1;exitX=0;exitY=0;exitDx=0;exitDy=0;entryX=1;entryY=0.5;entryDx=0;entryDy=0;strokeColor=#B5739D;fontFamily=Architects Daughter;fontSource=https%3A%2F%2Ffonts.googleapis.com%2Fcss%3Ffamily%3DArchitects%2BDaughter;fontSize=16;fontColor=#46495D;fillColor=#B2C9AB;curved=1;" edge="1" parent="1" source="uw5OpCNFV-HiSpu1PvvK-4" target="uw5OpCNFV-HiSpu1PvvK-104">
          <mxGeometry relative="1" as="geometry" />
        </mxCell>
        <mxCell id="uw5OpCNFV-HiSpu1PvvK-4" value="&lt;meta charset=&quot;utf-8&quot; style=&quot;font-size: 14px;&quot;&gt;&lt;strong style=&quot;border: 0px solid rgb(217, 217, 227); color: var(--tw-prose-bold); font-size: 14px; font-style: normal; font-variant-ligatures: normal; font-variant-caps: normal; letter-spacing: normal; orphans: 2; text-indent: 0px; text-transform: none; widows: 2; word-spacing: 0px; -webkit-text-stroke-width: 0px; text-decoration-thickness: initial; text-decoration-style: initial; text-decoration-color: initial; box-sizing: border-box; --tw-border-spacing-x: 0; --tw-border-spacing-y: 0; --tw-translate-x: 0; --tw-translate-y: 0; --tw-rotate: 0; --tw-skew-x: 0; --tw-skew-y: 0; --tw-scale-x: 1; --tw-scale-y: 1; --tw-pan-x: ; --tw-pan-y: ; --tw-pinch-zoom: ; --tw-scroll-snap-strictness: proximity; --tw-gradient-from-position: ; --tw-gradient-via-position: ; --tw-gradient-to-position: ; --tw-ordinal: ; --tw-slashed-zero: ; --tw-numeric-figure: ; --tw-numeric-spacing: ; --tw-numeric-fraction: ; --tw-ring-inset: ; --tw-ring-offset-width: 0px; --tw-ring-offset-color: #fff; --tw-ring-color: rgba(69,89,164,.5); --tw-ring-offset-shadow: 0 0 transparent; --tw-ring-shadow: 0 0 transparent; --tw-shadow: 0 0 transparent; --tw-shadow-colored: 0 0 transparent; --tw-blur: ; --tw-brightness: ; --tw-contrast: ; --tw-grayscale: ; --tw-hue-rotate: ; --tw-invert: ; --tw-saturate: ; --tw-sepia: ; --tw-drop-shadow: ; --tw-backdrop-blur: ; --tw-backdrop-brightness: ; --tw-backdrop-contrast: ; --tw-backdrop-grayscale: ; --tw-backdrop-hue-rotate: ; --tw-backdrop-invert: ; --tw-backdrop-opacity: ; --tw-backdrop-saturate: ; --tw-backdrop-sepia: ; font-weight: 600;&quot;&gt;*表单设计器（已有）&lt;/strong&gt;" style="shape=ext;double=1;rounded=1;whiteSpace=wrap;html=1;strokeWidth=1;dashed=1;sketch=1;curveFitting=1;jiggle=2;fontSize=14;labelBackgroundColor=none;align=left;spacingBottom=4;spacingTop=4;spacingLeft=4;spacingRight=4;fontFamily=Comic Sans MS;fillColor=#B2C9AB;strokeColor=#B5739D;fontColor=#46495D;" vertex="1" parent="1">
          <mxGeometry x="297" y="30" width="120" height="80" as="geometry" />
        </mxCell>
        <mxCell id="uw5OpCNFV-HiSpu1PvvK-18" value="" style="edgeStyle=orthogonalEdgeStyle;rounded=0;sketch=1;hachureGap=4;jiggle=2;curveFitting=1;orthogonalLoop=1;jettySize=auto;html=1;fontFamily=Comic Sans MS;fontSize=16;entryX=0;entryY=0.5;entryDx=0;entryDy=0;align=left;spacingBottom=4;spacingTop=4;spacingLeft=4;spacingRight=4;labelBackgroundColor=none;strokeColor=#B5739D;fontColor=default;curved=1;" edge="1" parent="1" source="uw5OpCNFV-HiSpu1PvvK-5" target="uw5OpCNFV-HiSpu1PvvK-19">
          <mxGeometry relative="1" as="geometry">
            <mxPoint x="700" y="210" as="targetPoint" />
          </mxGeometry>
        </mxCell>
        <mxCell id="uw5OpCNFV-HiSpu1PvvK-21" style="edgeStyle=orthogonalEdgeStyle;rounded=0;sketch=1;hachureGap=4;jiggle=2;curveFitting=1;orthogonalLoop=1;jettySize=auto;html=1;exitX=1;exitY=0.5;exitDx=0;exitDy=0;entryX=0;entryY=0.5;entryDx=0;entryDy=0;fontFamily=Comic Sans MS;fontSize=16;align=left;spacingBottom=4;spacingTop=4;spacingLeft=4;spacingRight=4;labelBackgroundColor=none;strokeColor=#B5739D;fontColor=default;curved=1;" edge="1" parent="1" source="uw5OpCNFV-HiSpu1PvvK-5" target="uw5OpCNFV-HiSpu1PvvK-22">
          <mxGeometry relative="1" as="geometry">
            <mxPoint x="910" y="130" as="targetPoint" />
          </mxGeometry>
        </mxCell>
        <mxCell id="uw5OpCNFV-HiSpu1PvvK-105" style="edgeStyle=orthogonalEdgeStyle;rounded=0;sketch=1;hachureGap=4;jiggle=2;curveFitting=1;orthogonalLoop=1;jettySize=auto;html=1;exitX=0;exitY=0;exitDx=0;exitDy=0;entryX=1;entryY=0.5;entryDx=0;entryDy=0;strokeColor=#B5739D;fontFamily=Architects Daughter;fontSource=https%3A%2F%2Ffonts.googleapis.com%2Fcss%3Ffamily%3DArchitects%2BDaughter;fontSize=16;fontColor=#46495D;fillColor=#B2C9AB;curved=1;" edge="1" parent="1" source="uw5OpCNFV-HiSpu1PvvK-5" target="uw5OpCNFV-HiSpu1PvvK-104">
          <mxGeometry relative="1" as="geometry" />
        </mxCell>
        <mxCell id="uw5OpCNFV-HiSpu1PvvK-5" value="&lt;ol style=&quot;border: 0px solid rgb(217, 217, 227); box-sizing: border-box; --tw-border-spacing-x: 0; --tw-border-spacing-y: 0; --tw-translate-x: 0; --tw-translate-y: 0; --tw-rotate: 0; --tw-skew-x: 0; --tw-skew-y: 0; --tw-scale-x: 1; --tw-scale-y: 1; --tw-pan-x: ; --tw-pan-y: ; --tw-pinch-zoom: ; --tw-scroll-snap-strictness: proximity; --tw-gradient-from-position: ; --tw-gradient-via-position: ; --tw-gradient-to-position: ; --tw-ordinal: ; --tw-slashed-zero: ; --tw-numeric-figure: ; --tw-numeric-spacing: ; --tw-numeric-fraction: ; --tw-ring-inset: ; --tw-ring-offset-width: 0px; --tw-ring-offset-color: #fff; --tw-ring-color: rgba(69,89,164,.5); --tw-ring-offset-shadow: 0 0 transparent; --tw-ring-shadow: 0 0 transparent; --tw-shadow: 0 0 transparent; --tw-shadow-colored: 0 0 transparent; --tw-blur: ; --tw-brightness: ; --tw-contrast: ; --tw-grayscale: ; --tw-hue-rotate: ; --tw-invert: ; --tw-saturate: ; --tw-sepia: ; --tw-drop-shadow: ; --tw-backdrop-blur: ; --tw-backdrop-brightness: ; --tw-backdrop-contrast: ; --tw-backdrop-grayscale: ; --tw-backdrop-hue-rotate: ; --tw-backdrop-invert: ; --tw-backdrop-opacity: ; --tw-backdrop-saturate: ; --tw-backdrop-sepia: ; list-style: none; margin: 1.25em 0px; padding: 0px; counter-reset: list-number 0; display: flex; flex-direction: column; color: rgb(55, 65, 81); font-size: 14px;&quot;&gt;&lt;li style=&quot;border: 0px solid rgb(217, 217, 227); box-sizing: border-box; --tw-border-spacing-x: 0; --tw-border-spacing-y: 0; --tw-translate-x: 0; --tw-translate-y: 0; --tw-rotate: 0; --tw-skew-x: 0; --tw-skew-y: 0; --tw-scale-x: 1; --tw-scale-y: 1; --tw-pan-x: ; --tw-pan-y: ; --tw-pinch-zoom: ; --tw-scroll-snap-strictness: proximity; --tw-gradient-from-position: ; --tw-gradient-via-position: ; --tw-gradient-to-position: ; --tw-ordinal: ; --tw-slashed-zero: ; --tw-numeric-figure: ; --tw-numeric-spacing: ; --tw-numeric-fraction: ; --tw-ring-inset: ; --tw-ring-offset-width: 0px; --tw-ring-offset-color: #fff; --tw-ring-color: rgba(69,89,164,.5); --tw-ring-offset-shadow: 0 0 transparent; --tw-ring-shadow: 0 0 transparent; --tw-shadow: 0 0 transparent; --tw-shadow-colored: 0 0 transparent; --tw-blur: ; --tw-brightness: ; --tw-contrast: ; --tw-grayscale: ; --tw-hue-rotate: ; --tw-invert: ; --tw-saturate: ; --tw-sepia: ; --tw-drop-shadow: ; --tw-backdrop-blur: ; --tw-backdrop-brightness: ; --tw-backdrop-contrast: ; --tw-backdrop-grayscale: ; --tw-backdrop-hue-rotate: ; --tw-backdrop-invert: ; --tw-backdrop-opacity: ; --tw-backdrop-saturate: ; --tw-backdrop-sepia: ; margin-bottom: 0px; margin-top: 0px; padding-left: 0.375em; counter-increment: list-number 1; display: block; min-height: 28px; font-size: 14px;&quot;&gt;&lt;p style=&quot;border: 0px solid rgb(217, 217, 227); box-sizing: border-box; --tw-border-spacing-x: 0; --tw-border-spacing-y: 0; --tw-translate-x: 0; --tw-translate-y: 0; --tw-rotate: 0; --tw-skew-x: 0; --tw-skew-y: 0; --tw-scale-x: 1; --tw-scale-y: 1; --tw-pan-x: ; --tw-pan-y: ; --tw-pinch-zoom: ; --tw-scroll-snap-strictness: proximity; --tw-gradient-from-position: ; --tw-gradient-via-position: ; --tw-gradient-to-position: ; --tw-ordinal: ; --tw-slashed-zero: ; --tw-numeric-figure: ; --tw-numeric-spacing: ; --tw-numeric-fraction: ; --tw-ring-inset: ; --tw-ring-offset-width: 0px; --tw-ring-offset-color: #fff; --tw-ring-color: rgba(69,89,164,.5); --tw-ring-offset-shadow: 0 0 transparent; --tw-ring-shadow: 0 0 transparent; --tw-shadow: 0 0 transparent; --tw-shadow-colored: 0 0 transparent; --tw-blur: ; --tw-brightness: ; --tw-contrast: ; --tw-grayscale: ; --tw-hue-rotate: ; --tw-invert: ; --tw-saturate: ; --tw-sepia: ; --tw-drop-shadow: ; --tw-backdrop-blur: ; --tw-backdrop-brightness: ; --tw-backdrop-contrast: ; --tw-backdrop-grayscale: ; --tw-backdrop-hue-rotate: ; --tw-backdrop-invert: ; --tw-backdrop-opacity: ; --tw-backdrop-saturate: ; --tw-backdrop-sepia: ; margin: 0px; font-size: 14px;&quot;&gt;&lt;b style=&quot;font-size: 14px;&quot;&gt;*界面设计器（暂无）&lt;/b&gt;&lt;/p&gt;&lt;/li&gt;&lt;/ol&gt;" style="shape=ext;double=1;rounded=1;whiteSpace=wrap;html=1;strokeWidth=1;dashed=1;sketch=1;curveFitting=1;jiggle=2;fontSize=14;labelBackgroundColor=none;align=left;spacingBottom=4;spacingTop=4;spacingLeft=4;spacingRight=4;fontFamily=Comic Sans MS;fillColor=#B2C9AB;strokeColor=#B5739D;fontColor=#46495D;" vertex="1" parent="1">
          <mxGeometry x="297" y="150" width="120" height="80" as="geometry" />
        </mxCell>
        <mxCell id="uw5OpCNFV-HiSpu1PvvK-23" style="edgeStyle=orthogonalEdgeStyle;rounded=0;sketch=1;hachureGap=4;jiggle=2;curveFitting=1;orthogonalLoop=1;jettySize=auto;html=1;entryX=0.5;entryY=1;entryDx=0;entryDy=0;fontFamily=Comic Sans MS;fontSize=16;align=left;spacingBottom=4;spacingTop=4;spacingLeft=4;spacingRight=4;labelBackgroundColor=none;strokeColor=#B5739D;fontColor=default;curved=1;" edge="1" parent="1" source="uw5OpCNFV-HiSpu1PvvK-6" target="uw5OpCNFV-HiSpu1PvvK-22">
          <mxGeometry relative="1" as="geometry" />
        </mxCell>
        <mxCell id="uw5OpCNFV-HiSpu1PvvK-30" style="edgeStyle=orthogonalEdgeStyle;rounded=0;sketch=1;hachureGap=4;jiggle=2;curveFitting=1;orthogonalLoop=1;jettySize=auto;html=1;exitX=1;exitY=0.5;exitDx=0;exitDy=0;entryX=0;entryY=0.5;entryDx=0;entryDy=0;fontFamily=Comic Sans MS;fontSize=16;labelBackgroundColor=none;strokeColor=#B5739D;fontColor=default;curved=1;" edge="1" parent="1" source="uw5OpCNFV-HiSpu1PvvK-6" target="uw5OpCNFV-HiSpu1PvvK-28">
          <mxGeometry relative="1" as="geometry" />
        </mxCell>
        <mxCell id="uw5OpCNFV-HiSpu1PvvK-31" style="edgeStyle=orthogonalEdgeStyle;rounded=0;sketch=1;hachureGap=4;jiggle=2;curveFitting=1;orthogonalLoop=1;jettySize=auto;html=1;exitX=1;exitY=0.5;exitDx=0;exitDy=0;entryX=0;entryY=0.5;entryDx=0;entryDy=0;fontFamily=Comic Sans MS;fontSize=16;labelBackgroundColor=none;strokeColor=#B5739D;fontColor=default;curved=1;" edge="1" parent="1" source="uw5OpCNFV-HiSpu1PvvK-6" target="uw5OpCNFV-HiSpu1PvvK-29">
          <mxGeometry relative="1" as="geometry" />
        </mxCell>
        <mxCell id="uw5OpCNFV-HiSpu1PvvK-33" style="edgeStyle=orthogonalEdgeStyle;rounded=0;sketch=1;hachureGap=4;jiggle=2;curveFitting=1;orthogonalLoop=1;jettySize=auto;html=1;exitX=1;exitY=0.5;exitDx=0;exitDy=0;fontFamily=Comic Sans MS;fontSize=16;entryX=0;entryY=0.25;entryDx=0;entryDy=0;labelBackgroundColor=none;strokeColor=#B5739D;fontColor=default;curved=1;" edge="1" parent="1" source="uw5OpCNFV-HiSpu1PvvK-6" target="uw5OpCNFV-HiSpu1PvvK-26">
          <mxGeometry relative="1" as="geometry">
            <mxPoint x="894" y="105" as="targetPoint" />
          </mxGeometry>
        </mxCell>
        <mxCell id="uw5OpCNFV-HiSpu1PvvK-35" style="edgeStyle=orthogonalEdgeStyle;rounded=0;sketch=1;hachureGap=4;jiggle=2;curveFitting=1;orthogonalLoop=1;jettySize=auto;html=1;exitX=1;exitY=0.5;exitDx=0;exitDy=0;entryX=0;entryY=0.5;entryDx=0;entryDy=0;fontFamily=Comic Sans MS;fontSize=16;labelBackgroundColor=none;strokeColor=#B5739D;fontColor=default;curved=1;" edge="1" parent="1" source="uw5OpCNFV-HiSpu1PvvK-6" target="uw5OpCNFV-HiSpu1PvvK-34">
          <mxGeometry relative="1" as="geometry" />
        </mxCell>
        <mxCell id="uw5OpCNFV-HiSpu1PvvK-6" value="&lt;font style=&quot;font-size: 14px;&quot;&gt;*数据集成和连接&lt;/font&gt;" style="shape=ext;double=1;rounded=1;whiteSpace=wrap;html=1;fontStyle=1;strokeWidth=1;dashed=1;sketch=1;curveFitting=1;jiggle=2;fontSize=14;labelBackgroundColor=none;align=left;spacingBottom=4;spacingTop=4;spacingLeft=4;spacingRight=4;arcSize=10;fontFamily=Comic Sans MS;fillColor=#B2C9AB;strokeColor=#B5739D;fontColor=#46495D;" vertex="1" parent="1">
          <mxGeometry x="290" y="310" width="127" height="80" as="geometry" />
        </mxCell>
        <mxCell id="uw5OpCNFV-HiSpu1PvvK-65" value="" style="edgeStyle=orthogonalEdgeStyle;rounded=0;sketch=1;hachureGap=4;jiggle=2;curveFitting=1;orthogonalLoop=1;jettySize=auto;html=1;strokeColor=#B5739D;fontFamily=Architects Daughter;fontSource=https%3A%2F%2Ffonts.googleapis.com%2Fcss%3Ffamily%3DArchitects%2BDaughter;fontSize=16;fontColor=#46495D;fillColor=#B2C9AB;curved=1;" edge="1" parent="1" source="uw5OpCNFV-HiSpu1PvvK-8" target="uw5OpCNFV-HiSpu1PvvK-64">
          <mxGeometry relative="1" as="geometry" />
        </mxCell>
        <mxCell id="uw5OpCNFV-HiSpu1PvvK-8" value="&lt;font style=&quot;font-size: 14px;&quot;&gt;*自动代码生成&lt;span style=&quot;color: rgb(55, 65, 81); font-weight: 400; font-size: 14px;&quot;&gt;：&lt;/span&gt;&lt;/font&gt;&lt;span style=&quot;color: rgb(55, 65, 81); font-size: 14px; font-weight: 400;&quot;&gt;能够根据用户的可视化配置自动生成应用程序的后端和前端代码，包括数据访问、业务逻辑和用户界面。&lt;/span&gt;" style="shape=ext;double=1;rounded=1;whiteSpace=wrap;html=1;fontStyle=1;strokeWidth=1;dashed=1;sketch=1;curveFitting=1;jiggle=2;fontSize=14;labelBackgroundColor=none;align=left;spacingBottom=4;spacingTop=4;spacingLeft=4;spacingRight=4;fontFamily=Comic Sans MS;fillColor=#B2C9AB;strokeColor=#B5739D;fontColor=#46495D;" vertex="1" parent="1">
          <mxGeometry x="297" y="1260" width="120" height="160" as="geometry" />
        </mxCell>
        <mxCell id="uw5OpCNFV-HiSpu1PvvK-9" value="工作流和业务规则" style="shape=ext;double=1;rounded=1;whiteSpace=wrap;html=1;fontStyle=1;strokeWidth=1;dashed=1;sketch=1;curveFitting=1;jiggle=2;fontSize=12;labelBackgroundColor=none;align=left;spacingBottom=4;spacingTop=4;spacingLeft=4;spacingRight=4;fontFamily=Comic Sans MS;fillColor=none;strokeColor=#B5739D;" vertex="1" parent="1">
          <mxGeometry x="482" y="1450" width="120" height="35" as="geometry" />
        </mxCell>
        <mxCell id="uw5OpCNFV-HiSpu1PvvK-10" value="*权限和安全性管理&lt;span style=&quot;color: rgb(55, 65, 81); font-size: 14px; font-weight: 400;&quot;&gt;：提供对应用程序中的数据和功能进行安全管理和控制的工具，包括用户角色、访问控制和身份验证。&lt;/span&gt;" style="shape=ext;double=1;rounded=1;whiteSpace=wrap;html=1;fontStyle=1;strokeWidth=1;dashed=1;sketch=1;curveFitting=1;jiggle=2;fontSize=14;labelBackgroundColor=none;align=left;spacingBottom=4;spacingTop=4;spacingLeft=4;spacingRight=4;fontFamily=Comic Sans MS;fillColor=#B2C9AB;strokeColor=#B5739D;fontColor=#46495D;" vertex="1" parent="1">
          <mxGeometry x="293.5" y="1075" width="120" height="170" as="geometry" />
        </mxCell>
        <mxCell id="uw5OpCNFV-HiSpu1PvvK-11" value="移动应用支持" style="shape=ext;double=1;rounded=1;whiteSpace=wrap;html=1;fontStyle=1;strokeWidth=1;dashed=1;sketch=1;curveFitting=1;jiggle=2;fontSize=12;labelBackgroundColor=none;align=left;spacingBottom=4;spacingTop=4;spacingLeft=4;spacingRight=4;fontFamily=Comic Sans MS;fillColor=none;strokeColor=#B5739D;" vertex="1" parent="1">
          <mxGeometry x="482" y="1505" width="120" height="45" as="geometry" />
        </mxCell>
        <mxCell id="uw5OpCNFV-HiSpu1PvvK-55" style="edgeStyle=orthogonalEdgeStyle;rounded=0;sketch=1;hachureGap=4;jiggle=2;curveFitting=1;orthogonalLoop=1;jettySize=auto;html=1;exitX=1;exitY=0.75;exitDx=0;exitDy=0;entryX=0.5;entryY=1;entryDx=0;entryDy=0;strokeColor=#B5739D;fontFamily=Architects Daughter;fontSource=https%3A%2F%2Ffonts.googleapis.com%2Fcss%3Ffamily%3DArchitects%2BDaughter;fontSize=16;fontColor=#46495D;fillColor=#B2C9AB;curved=1;" edge="1" parent="1" source="uw5OpCNFV-HiSpu1PvvK-13" target="uw5OpCNFV-HiSpu1PvvK-37">
          <mxGeometry relative="1" as="geometry" />
        </mxCell>
        <mxCell id="uw5OpCNFV-HiSpu1PvvK-13" value="&lt;ol style=&quot;border: 0px solid rgb(217, 217, 227); box-sizing: border-box; --tw-border-spacing-x: 0; --tw-border-spacing-y: 0; --tw-translate-x: 0; --tw-translate-y: 0; --tw-rotate: 0; --tw-skew-x: 0; --tw-skew-y: 0; --tw-scale-x: 1; --tw-scale-y: 1; --tw-pan-x: ; --tw-pan-y: ; --tw-pinch-zoom: ; --tw-scroll-snap-strictness: proximity; --tw-gradient-from-position: ; --tw-gradient-via-position: ; --tw-gradient-to-position: ; --tw-ordinal: ; --tw-slashed-zero: ; --tw-numeric-figure: ; --tw-numeric-spacing: ; --tw-numeric-fraction: ; --tw-ring-inset: ; --tw-ring-offset-width: 0px; --tw-ring-offset-color: #fff; --tw-ring-color: rgba(69,89,164,.5); --tw-ring-offset-shadow: 0 0 transparent; --tw-ring-shadow: 0 0 transparent; --tw-shadow: 0 0 transparent; --tw-shadow-colored: 0 0 transparent; --tw-blur: ; --tw-brightness: ; --tw-contrast: ; --tw-grayscale: ; --tw-hue-rotate: ; --tw-invert: ; --tw-saturate: ; --tw-sepia: ; --tw-drop-shadow: ; --tw-backdrop-blur: ; --tw-backdrop-brightness: ; --tw-backdrop-contrast: ; --tw-backdrop-grayscale: ; --tw-backdrop-hue-rotate: ; --tw-backdrop-invert: ; --tw-backdrop-opacity: ; --tw-backdrop-saturate: ; --tw-backdrop-sepia: ; list-style: none; margin: 1.25em 0px; padding: 0px; counter-reset: list-number 0; display: flex; flex-direction: column; color: rgb(55, 65, 81); font-size: 14px;&quot;&gt;&lt;li style=&quot;border: 0px solid rgb(217, 217, 227); box-sizing: border-box; --tw-border-spacing-x: 0; --tw-border-spacing-y: 0; --tw-translate-x: 0; --tw-translate-y: 0; --tw-rotate: 0; --tw-skew-x: 0; --tw-skew-y: 0; --tw-scale-x: 1; --tw-scale-y: 1; --tw-pan-x: ; --tw-pan-y: ; --tw-pinch-zoom: ; --tw-scroll-snap-strictness: proximity; --tw-gradient-from-position: ; --tw-gradient-via-position: ; --tw-gradient-to-position: ; --tw-ordinal: ; --tw-slashed-zero: ; --tw-numeric-figure: ; --tw-numeric-spacing: ; --tw-numeric-fraction: ; --tw-ring-inset: ; --tw-ring-offset-width: 0px; --tw-ring-offset-color: #fff; --tw-ring-color: rgba(69,89,164,.5); --tw-ring-offset-shadow: 0 0 transparent; --tw-ring-shadow: 0 0 transparent; --tw-shadow: 0 0 transparent; --tw-shadow-colored: 0 0 transparent; --tw-blur: ; --tw-brightness: ; --tw-contrast: ; --tw-grayscale: ; --tw-hue-rotate: ; --tw-invert: ; --tw-saturate: ; --tw-sepia: ; --tw-drop-shadow: ; --tw-backdrop-blur: ; --tw-backdrop-brightness: ; --tw-backdrop-contrast: ; --tw-backdrop-grayscale: ; --tw-backdrop-hue-rotate: ; --tw-backdrop-invert: ; --tw-backdrop-opacity: ; --tw-backdrop-saturate: ; --tw-backdrop-sepia: ; margin-bottom: 0px; margin-top: 0px; padding-left: 0.375em; counter-increment: list-number 1; display: block; min-height: 28px; font-size: 14px;&quot;&gt;&lt;p style=&quot;border: 0px solid rgb(217, 217, 227); box-sizing: border-box; --tw-border-spacing-x: 0; --tw-border-spacing-y: 0; --tw-translate-x: 0; --tw-translate-y: 0; --tw-rotate: 0; --tw-skew-x: 0; --tw-skew-y: 0; --tw-scale-x: 1; --tw-scale-y: 1; --tw-pan-x: ; --tw-pan-y: ; --tw-pinch-zoom: ; --tw-scroll-snap-strictness: proximity; --tw-gradient-from-position: ; --tw-gradient-via-position: ; --tw-gradient-to-position: ; --tw-ordinal: ; --tw-slashed-zero: ; --tw-numeric-figure: ; --tw-numeric-spacing: ; --tw-numeric-fraction: ; --tw-ring-inset: ; --tw-ring-offset-width: 0px; --tw-ring-offset-color: #fff; --tw-ring-color: rgba(69,89,164,.5); --tw-ring-offset-shadow: 0 0 transparent; --tw-ring-shadow: 0 0 transparent; --tw-shadow: 0 0 transparent; --tw-shadow-colored: 0 0 transparent; --tw-blur: ; --tw-brightness: ; --tw-contrast: ; --tw-grayscale: ; --tw-hue-rotate: ; --tw-invert: ; --tw-saturate: ; --tw-sepia: ; --tw-drop-shadow: ; --tw-backdrop-blur: ; --tw-backdrop-brightness: ; --tw-backdrop-contrast: ; --tw-backdrop-grayscale: ; --tw-backdrop-hue-rotate: ; --tw-backdrop-invert: ; --tw-backdrop-opacity: ; --tw-backdrop-saturate: ; --tw-backdrop-sepia: ; margin: 0px; font-size: 14px;&quot;&gt;*自定义插件和扩展性：&lt;span style=&quot;font-weight: 400;&quot;&gt;支持用户编写自定义插件或扩展以满足特定需求。&lt;/span&gt;&lt;/p&gt;&lt;/li&gt;&lt;/ol&gt;" style="shape=ext;double=1;rounded=1;whiteSpace=wrap;html=1;fontStyle=1;strokeWidth=1;dashed=1;sketch=1;curveFitting=1;jiggle=2;fontSize=14;labelBackgroundColor=none;align=left;spacingBottom=4;spacingTop=4;spacingLeft=4;spacingRight=4;fontFamily=Comic Sans MS;fillColor=#B2C9AB;strokeColor=#B5739D;fontColor=#46495D;" vertex="1" parent="1">
          <mxGeometry x="297" y="735" width="120" height="130" as="geometry" />
        </mxCell>
        <mxCell id="uw5OpCNFV-HiSpu1PvvK-14" value="*实时协作和团队合作&lt;span style=&quot;color: rgb(55, 65, 81); font-size: 14px; font-weight: 400;&quot;&gt;：允许多个开发者同时在应用程序上协作和编辑。&lt;/span&gt;" style="shape=ext;double=1;rounded=1;whiteSpace=wrap;html=1;fontStyle=1;strokeWidth=1;dashed=1;sketch=1;curveFitting=1;jiggle=2;fontSize=14;labelBackgroundColor=none;align=left;spacingBottom=4;spacingTop=4;spacingLeft=4;spacingRight=4;fontFamily=Comic Sans MS;fillColor=#B2C9AB;strokeColor=#B5739D;fontColor=#46495D;" vertex="1" parent="1">
          <mxGeometry x="297" y="430" width="120" height="120" as="geometry" />
        </mxCell>
        <UserObject label="阿里巴巴lowcode" link="https://lowcode-engine.cn/demo/demo-custom-initialization/index.html" linkTarget="_blank" id="uw5OpCNFV-HiSpu1PvvK-19">
          <mxCell style="text;html=1;strokeColor=#B5739D;fillColor=none;whiteSpace=wrap;align=left;verticalAlign=middle;fontColor=#46495D;fontStyle=4;fontSize=20;fontFamily=Comic Sans MS;spacingBottom=4;spacingTop=4;spacingLeft=4;spacingRight=4;labelBackgroundColor=none;" vertex="1" parent="1">
            <mxGeometry x="487" y="125" width="90" height="40" as="geometry" />
          </mxCell>
        </UserObject>
        <UserObject label="AppSmith" link="https://app.appsmith.com/app/untitled-application-1/page1-65012644f7b4765833d7cbcf/edit/widgets/g01bf4sgsc" linkTarget="_blank" id="uw5OpCNFV-HiSpu1PvvK-22">
          <mxCell style="text;html=1;strokeColor=#B5739D;fillColor=none;whiteSpace=wrap;align=left;verticalAlign=middle;fontColor=#46495D;fontStyle=4;fontSize=20;fontFamily=Comic Sans MS;spacingBottom=4;spacingTop=4;spacingLeft=4;spacingRight=4;labelBackgroundColor=none;" vertex="1" parent="1">
            <mxGeometry x="492" y="195" width="90" height="40" as="geometry" />
          </mxCell>
        </UserObject>
        <UserObject label="vform-v3" link="https://www.vform666.com/vform3/" linkTarget="_blank" id="uw5OpCNFV-HiSpu1PvvK-24">
          <mxCell style="text;html=1;strokeColor=#B5739D;fillColor=none;whiteSpace=wrap;align=center;verticalAlign=middle;fontColor=#46495D;fontStyle=4;fontSize=20;fontFamily=Comic Sans MS;labelBackgroundColor=none;" vertex="1" parent="1">
            <mxGeometry x="477" y="45" width="130" height="40" as="geometry" />
          </mxCell>
        </UserObject>
        <mxCell id="uw5OpCNFV-HiSpu1PvvK-26" value="*API" style="whiteSpace=wrap;html=1;fontSize=14;align=left;rounded=1;fontStyle=1;strokeWidth=1;dashed=1;sketch=1;curveFitting=1;jiggle=2;labelBackgroundColor=none;spacingBottom=4;spacingTop=4;spacingLeft=4;spacingRight=4;hachureGap=4;fontFamily=Comic Sans MS;fillColor=#B2C9AB;strokeColor=#B5739D;fontColor=#46495D;" vertex="1" parent="1">
          <mxGeometry x="637" y="240" width="50" height="60" as="geometry" />
        </mxCell>
        <mxCell id="uw5OpCNFV-HiSpu1PvvK-28" value="*数据库" style="whiteSpace=wrap;html=1;fontSize=14;align=left;rounded=1;fontStyle=1;strokeWidth=1;dashed=1;sketch=1;curveFitting=1;jiggle=2;labelBackgroundColor=none;spacingBottom=4;spacingTop=4;spacingLeft=4;spacingRight=4;hachureGap=4;fontFamily=Comic Sans MS;fillColor=#B2C9AB;strokeColor=#B5739D;fontColor=#46495D;" vertex="1" parent="1">
          <mxGeometry x="637" y="320" width="70" height="60" as="geometry" />
        </mxCell>
        <mxCell id="uw5OpCNFV-HiSpu1PvvK-29" value="云服务" style="whiteSpace=wrap;html=1;fontSize=14;align=left;rounded=1;fontStyle=1;strokeWidth=1;dashed=1;sketch=1;curveFitting=1;jiggle=2;labelBackgroundColor=none;spacingBottom=4;spacingTop=4;spacingLeft=4;spacingRight=4;hachureGap=4;fontFamily=Comic Sans MS;fillColor=#B2C9AB;strokeColor=#B5739D;fontColor=#46495D;" vertex="1" parent="1">
          <mxGeometry x="637" y="410" width="70" height="60" as="geometry" />
        </mxCell>
        <mxCell id="uw5OpCNFV-HiSpu1PvvK-34" value="*其他的SaaS集成（文件读取-JSON、CVS）" style="whiteSpace=wrap;html=1;fontSize=14;align=left;rounded=1;fontStyle=1;strokeWidth=1;dashed=1;sketch=1;curveFitting=1;jiggle=2;labelBackgroundColor=none;spacingBottom=4;spacingTop=4;spacingLeft=4;spacingRight=4;hachureGap=4;fontFamily=Comic Sans MS;fillColor=#B2C9AB;strokeColor=#B5739D;fontColor=#46495D;" vertex="1" parent="1">
          <mxGeometry x="637" y="490" width="160" height="60" as="geometry" />
        </mxCell>
        <mxCell id="uw5OpCNFV-HiSpu1PvvK-38" value="" style="edgeStyle=orthogonalEdgeStyle;rounded=0;sketch=1;hachureGap=4;jiggle=2;curveFitting=1;orthogonalLoop=1;jettySize=auto;html=1;fontFamily=Comic Sans MS;fontSize=16;labelBackgroundColor=none;strokeColor=#B5739D;fontColor=default;entryX=0;entryY=0.5;entryDx=0;entryDy=0;curved=1;" edge="1" parent="1" source="uw5OpCNFV-HiSpu1PvvK-36" target="uw5OpCNFV-HiSpu1PvvK-47">
          <mxGeometry relative="1" as="geometry">
            <mxPoint x="490.5" y="735" as="targetPoint" />
          </mxGeometry>
        </mxCell>
        <mxCell id="uw5OpCNFV-HiSpu1PvvK-41" value="" style="edgeStyle=orthogonalEdgeStyle;rounded=0;sketch=1;hachureGap=4;jiggle=2;curveFitting=1;orthogonalLoop=1;jettySize=auto;html=1;fontFamily=Comic Sans MS;fontSize=16;labelBackgroundColor=none;strokeColor=#B5739D;fontColor=default;entryX=0;entryY=0.5;entryDx=0;entryDy=0;curved=1;" edge="1" parent="1" source="uw5OpCNFV-HiSpu1PvvK-36" target="uw5OpCNFV-HiSpu1PvvK-37">
          <mxGeometry relative="1" as="geometry">
            <mxPoint x="490.5" y="735" as="targetPoint" />
          </mxGeometry>
        </mxCell>
        <mxCell id="uw5OpCNFV-HiSpu1PvvK-48" style="edgeStyle=orthogonalEdgeStyle;rounded=0;sketch=1;hachureGap=4;jiggle=2;curveFitting=1;orthogonalLoop=1;jettySize=auto;html=1;exitX=1;exitY=0.5;exitDx=0;exitDy=0;entryX=0;entryY=0.5;entryDx=0;entryDy=0;fontFamily=Comic Sans MS;fontSize=16;labelBackgroundColor=none;strokeColor=#B5739D;fontColor=default;curved=1;" edge="1" parent="1" source="uw5OpCNFV-HiSpu1PvvK-36" target="uw5OpCNFV-HiSpu1PvvK-45">
          <mxGeometry relative="1" as="geometry">
            <mxPoint x="490.5" y="815" as="targetPoint" />
          </mxGeometry>
        </mxCell>
        <mxCell id="uw5OpCNFV-HiSpu1PvvK-36" value="&lt;font style=&quot;font-size: 14px;&quot;&gt;*工具函数的集成和使用&lt;/font&gt;" style="shape=ext;double=1;rounded=1;whiteSpace=wrap;html=1;fontStyle=1;strokeWidth=1;dashed=1;sketch=1;curveFitting=1;jiggle=2;fontSize=14;labelBackgroundColor=none;align=left;spacingBottom=4;spacingTop=4;spacingLeft=4;spacingRight=4;fontFamily=Comic Sans MS;fillColor=#B2C9AB;strokeColor=#B5739D;fontColor=#46495D;" vertex="1" parent="1">
          <mxGeometry x="297" y="620" width="120" height="70" as="geometry" />
        </mxCell>
        <mxCell id="uw5OpCNFV-HiSpu1PvvK-37" value="lodash" style="shape=ext;double=1;rounded=1;whiteSpace=wrap;html=1;fontStyle=1;strokeWidth=1;dashed=1;sketch=1;curveFitting=1;jiggle=2;fontSize=14;labelBackgroundColor=none;align=left;spacingBottom=4;spacingTop=4;spacingLeft=4;spacingRight=4;fontFamily=Comic Sans MS;hachureGap=4;fillColor=#B2C9AB;strokeColor=#B5739D;fontColor=#46495D;" vertex="1" parent="1">
          <mxGeometry x="492" y="735" width="67" height="70" as="geometry" />
        </mxCell>
        <mxCell id="uw5OpCNFV-HiSpu1PvvK-45" value="echart" style="shape=ext;double=1;rounded=1;whiteSpace=wrap;html=1;fontStyle=1;strokeWidth=1;dashed=1;sketch=1;curveFitting=1;jiggle=2;fontSize=14;labelBackgroundColor=none;align=left;spacingBottom=4;spacingTop=4;spacingLeft=4;spacingRight=4;fontFamily=Comic Sans MS;hachureGap=4;fillColor=#B2C9AB;strokeColor=#B5739D;fontColor=#46495D;" vertex="1" parent="1">
          <mxGeometry x="487" y="645" width="67" height="70" as="geometry" />
        </mxCell>
        <mxCell id="uw5OpCNFV-HiSpu1PvvK-47" value="moment" style="shape=ext;double=1;rounded=1;whiteSpace=wrap;html=1;fontStyle=1;strokeWidth=1;dashed=1;sketch=1;curveFitting=1;jiggle=2;fontSize=14;labelBackgroundColor=none;align=left;spacingBottom=4;spacingTop=4;spacingLeft=4;spacingRight=4;fontFamily=Comic Sans MS;hachureGap=4;fillColor=#B2C9AB;strokeColor=#B5739D;fontColor=#46495D;" vertex="1" parent="1">
          <mxGeometry x="487" y="550" width="67" height="70" as="geometry" />
        </mxCell>
        <mxCell id="uw5OpCNFV-HiSpu1PvvK-72" style="edgeStyle=orthogonalEdgeStyle;rounded=0;sketch=1;hachureGap=4;jiggle=2;curveFitting=1;orthogonalLoop=1;jettySize=auto;html=1;exitX=1;exitY=0.5;exitDx=0;exitDy=0;entryX=0;entryY=0.5;entryDx=0;entryDy=0;strokeColor=#B5739D;fontFamily=Architects Daughter;fontSource=https%3A%2F%2Ffonts.googleapis.com%2Fcss%3Ffamily%3DArchitects%2BDaughter;fontSize=16;fontColor=#46495D;fillColor=#B2C9AB;curved=1;" edge="1" parent="1" source="uw5OpCNFV-HiSpu1PvvK-51" target="uw5OpCNFV-HiSpu1PvvK-5">
          <mxGeometry relative="1" as="geometry" />
        </mxCell>
        <mxCell id="uw5OpCNFV-HiSpu1PvvK-73" style="edgeStyle=orthogonalEdgeStyle;rounded=0;sketch=1;hachureGap=4;jiggle=2;curveFitting=1;orthogonalLoop=1;jettySize=auto;html=1;exitX=1;exitY=0.5;exitDx=0;exitDy=0;entryX=0;entryY=0.5;entryDx=0;entryDy=0;strokeColor=#B5739D;fontFamily=Architects Daughter;fontSource=https%3A%2F%2Ffonts.googleapis.com%2Fcss%3Ffamily%3DArchitects%2BDaughter;fontSize=16;fontColor=#46495D;fillColor=#B2C9AB;curved=1;" edge="1" parent="1" source="uw5OpCNFV-HiSpu1PvvK-51" target="uw5OpCNFV-HiSpu1PvvK-6">
          <mxGeometry relative="1" as="geometry" />
        </mxCell>
        <mxCell id="uw5OpCNFV-HiSpu1PvvK-74" style="edgeStyle=orthogonalEdgeStyle;rounded=0;sketch=1;hachureGap=4;jiggle=2;curveFitting=1;orthogonalLoop=1;jettySize=auto;html=1;exitX=1;exitY=0.5;exitDx=0;exitDy=0;entryX=0;entryY=0.5;entryDx=0;entryDy=0;strokeColor=#B5739D;fontFamily=Architects Daughter;fontSource=https%3A%2F%2Ffonts.googleapis.com%2Fcss%3Ffamily%3DArchitects%2BDaughter;fontSize=16;fontColor=#46495D;fillColor=#B2C9AB;curved=1;" edge="1" parent="1" source="uw5OpCNFV-HiSpu1PvvK-51" target="uw5OpCNFV-HiSpu1PvvK-14">
          <mxGeometry relative="1" as="geometry" />
        </mxCell>
        <mxCell id="uw5OpCNFV-HiSpu1PvvK-75" style="edgeStyle=orthogonalEdgeStyle;rounded=0;sketch=1;hachureGap=4;jiggle=2;curveFitting=1;orthogonalLoop=1;jettySize=auto;html=1;exitX=1;exitY=0.5;exitDx=0;exitDy=0;entryX=0;entryY=0.5;entryDx=0;entryDy=0;strokeColor=#B5739D;fontFamily=Architects Daughter;fontSource=https%3A%2F%2Ffonts.googleapis.com%2Fcss%3Ffamily%3DArchitects%2BDaughter;fontSize=16;fontColor=#46495D;fillColor=#B2C9AB;curved=1;" edge="1" parent="1" source="uw5OpCNFV-HiSpu1PvvK-51" target="uw5OpCNFV-HiSpu1PvvK-36">
          <mxGeometry relative="1" as="geometry" />
        </mxCell>
        <mxCell id="uw5OpCNFV-HiSpu1PvvK-76" style="edgeStyle=orthogonalEdgeStyle;rounded=0;sketch=1;hachureGap=4;jiggle=2;curveFitting=1;orthogonalLoop=1;jettySize=auto;html=1;exitX=1;exitY=0.5;exitDx=0;exitDy=0;entryX=0;entryY=0.5;entryDx=0;entryDy=0;strokeColor=#B5739D;fontFamily=Architects Daughter;fontSource=https%3A%2F%2Ffonts.googleapis.com%2Fcss%3Ffamily%3DArchitects%2BDaughter;fontSize=16;fontColor=#46495D;fillColor=#B2C9AB;curved=1;" edge="1" parent="1" source="uw5OpCNFV-HiSpu1PvvK-51" target="uw5OpCNFV-HiSpu1PvvK-13">
          <mxGeometry relative="1" as="geometry" />
        </mxCell>
        <mxCell id="uw5OpCNFV-HiSpu1PvvK-77" style="edgeStyle=orthogonalEdgeStyle;rounded=0;sketch=1;hachureGap=4;jiggle=2;curveFitting=1;orthogonalLoop=1;jettySize=auto;html=1;exitX=1;exitY=0.5;exitDx=0;exitDy=0;entryX=0;entryY=0.5;entryDx=0;entryDy=0;strokeColor=#B5739D;fontFamily=Architects Daughter;fontSource=https%3A%2F%2Ffonts.googleapis.com%2Fcss%3Ffamily%3DArchitects%2BDaughter;fontSize=16;fontColor=#46495D;fillColor=#B2C9AB;curved=1;" edge="1" parent="1" source="uw5OpCNFV-HiSpu1PvvK-51" target="uw5OpCNFV-HiSpu1PvvK-56">
          <mxGeometry relative="1" as="geometry" />
        </mxCell>
        <mxCell id="uw5OpCNFV-HiSpu1PvvK-78" style="edgeStyle=orthogonalEdgeStyle;rounded=0;sketch=1;hachureGap=4;jiggle=2;curveFitting=1;orthogonalLoop=1;jettySize=auto;html=1;exitX=1;exitY=0.5;exitDx=0;exitDy=0;entryX=0;entryY=0.5;entryDx=0;entryDy=0;strokeColor=#B5739D;fontFamily=Architects Daughter;fontSource=https%3A%2F%2Ffonts.googleapis.com%2Fcss%3Ffamily%3DArchitects%2BDaughter;fontSize=16;fontColor=#46495D;fillColor=#B2C9AB;curved=1;" edge="1" parent="1" source="uw5OpCNFV-HiSpu1PvvK-51" target="uw5OpCNFV-HiSpu1PvvK-54">
          <mxGeometry relative="1" as="geometry" />
        </mxCell>
        <mxCell id="uw5OpCNFV-HiSpu1PvvK-79" style="edgeStyle=orthogonalEdgeStyle;rounded=0;sketch=1;hachureGap=4;jiggle=2;curveFitting=1;orthogonalLoop=1;jettySize=auto;html=1;exitX=1;exitY=0.5;exitDx=0;exitDy=0;entryX=0;entryY=0.5;entryDx=0;entryDy=0;strokeColor=#B5739D;fontFamily=Architects Daughter;fontSource=https%3A%2F%2Ffonts.googleapis.com%2Fcss%3Ffamily%3DArchitects%2BDaughter;fontSize=16;fontColor=#46495D;fillColor=#B2C9AB;curved=1;" edge="1" parent="1" source="uw5OpCNFV-HiSpu1PvvK-51" target="uw5OpCNFV-HiSpu1PvvK-10">
          <mxGeometry relative="1" as="geometry" />
        </mxCell>
        <mxCell id="uw5OpCNFV-HiSpu1PvvK-80" style="edgeStyle=orthogonalEdgeStyle;rounded=0;sketch=1;hachureGap=4;jiggle=2;curveFitting=1;orthogonalLoop=1;jettySize=auto;html=1;exitX=1;exitY=0.5;exitDx=0;exitDy=0;entryX=0;entryY=0.5;entryDx=0;entryDy=0;strokeColor=#B5739D;fontFamily=Architects Daughter;fontSource=https%3A%2F%2Ffonts.googleapis.com%2Fcss%3Ffamily%3DArchitects%2BDaughter;fontSize=16;fontColor=#46495D;fillColor=#B2C9AB;curved=1;" edge="1" parent="1" source="uw5OpCNFV-HiSpu1PvvK-51" target="uw5OpCNFV-HiSpu1PvvK-8">
          <mxGeometry relative="1" as="geometry" />
        </mxCell>
        <mxCell id="uw5OpCNFV-HiSpu1PvvK-85" style="edgeStyle=orthogonalEdgeStyle;rounded=0;sketch=1;hachureGap=4;jiggle=2;curveFitting=1;orthogonalLoop=1;jettySize=auto;html=1;exitX=1;exitY=0.5;exitDx=0;exitDy=0;entryX=0;entryY=0.5;entryDx=0;entryDy=0;strokeColor=#B5739D;fontFamily=Architects Daughter;fontSource=https%3A%2F%2Ffonts.googleapis.com%2Fcss%3Ffamily%3DArchitects%2BDaughter;fontSize=16;fontColor=#46495D;fillColor=#B2C9AB;curved=1;" edge="1" parent="1" source="uw5OpCNFV-HiSpu1PvvK-51" target="uw5OpCNFV-HiSpu1PvvK-81">
          <mxGeometry relative="1" as="geometry" />
        </mxCell>
        <mxCell id="uw5OpCNFV-HiSpu1PvvK-86" style="edgeStyle=orthogonalEdgeStyle;rounded=0;sketch=1;hachureGap=4;jiggle=2;curveFitting=1;orthogonalLoop=1;jettySize=auto;html=1;exitX=1;exitY=0.5;exitDx=0;exitDy=0;entryX=0;entryY=0.5;entryDx=0;entryDy=0;strokeColor=#B5739D;fontFamily=Architects Daughter;fontSource=https%3A%2F%2Ffonts.googleapis.com%2Fcss%3Ffamily%3DArchitects%2BDaughter;fontSize=16;fontColor=#46495D;fillColor=#B2C9AB;curved=1;" edge="1" parent="1" source="uw5OpCNFV-HiSpu1PvvK-51" target="uw5OpCNFV-HiSpu1PvvK-4">
          <mxGeometry relative="1" as="geometry" />
        </mxCell>
        <mxCell id="uw5OpCNFV-HiSpu1PvvK-51" value="开发思考" style="shape=ext;double=1;rounded=1;whiteSpace=wrap;html=1;fontStyle=1;strokeWidth=1;dashed=1;sketch=1;curveFitting=1;jiggle=2;fontSize=14;labelBackgroundColor=none;align=left;spacingBottom=4;spacingTop=4;spacingLeft=4;spacingRight=4;fontFamily=Comic Sans MS;fillColor=#B2C9AB;strokeColor=#B5739D;fontColor=#46495D;" vertex="1" parent="1">
          <mxGeometry x="40" y="660" width="120" height="120" as="geometry" />
        </mxCell>
        <mxCell id="uw5OpCNFV-HiSpu1PvvK-54" value="&lt;font style=&quot;font-size: 14px;&quot;&gt;*调试&lt;/font&gt;" style="shape=ext;double=1;rounded=1;whiteSpace=wrap;html=1;fontStyle=1;strokeWidth=1;dashed=1;sketch=1;curveFitting=1;jiggle=2;fontSize=14;labelBackgroundColor=none;align=left;spacingBottom=4;spacingTop=4;spacingLeft=4;spacingRight=4;fontFamily=Comic Sans MS;fillColor=#B2C9AB;strokeColor=#B5739D;fontColor=#46495D;" vertex="1" parent="1">
          <mxGeometry x="297" y="995" width="120" height="40" as="geometry" />
        </mxCell>
        <mxCell id="uw5OpCNFV-HiSpu1PvvK-59" value="" style="edgeStyle=orthogonalEdgeStyle;rounded=0;sketch=1;hachureGap=4;jiggle=2;curveFitting=1;orthogonalLoop=1;jettySize=auto;html=1;strokeColor=#B5739D;fontFamily=Architects Daughter;fontSource=https%3A%2F%2Ffonts.googleapis.com%2Fcss%3Ffamily%3DArchitects%2BDaughter;fontSize=16;fontColor=#46495D;fillColor=#B2C9AB;curved=1;" edge="1" parent="1" source="uw5OpCNFV-HiSpu1PvvK-56" target="uw5OpCNFV-HiSpu1PvvK-58">
          <mxGeometry relative="1" as="geometry" />
        </mxCell>
        <mxCell id="uw5OpCNFV-HiSpu1PvvK-62" style="edgeStyle=orthogonalEdgeStyle;rounded=0;sketch=1;hachureGap=4;jiggle=2;curveFitting=1;orthogonalLoop=1;jettySize=auto;html=1;exitX=1;exitY=0.5;exitDx=0;exitDy=0;entryX=0;entryY=0.5;entryDx=0;entryDy=0;strokeColor=#B5739D;fontFamily=Architects Daughter;fontSource=https%3A%2F%2Ffonts.googleapis.com%2Fcss%3Ffamily%3DArchitects%2BDaughter;fontSize=16;fontColor=#46495D;fillColor=#B2C9AB;curved=1;" edge="1" parent="1" source="uw5OpCNFV-HiSpu1PvvK-56" target="uw5OpCNFV-HiSpu1PvvK-61">
          <mxGeometry relative="1" as="geometry" />
        </mxCell>
        <mxCell id="uw5OpCNFV-HiSpu1PvvK-56" value="&lt;font style=&quot;font-size: 14px;&quot;&gt;*样式预设&lt;/font&gt;" style="shape=ext;double=1;rounded=1;whiteSpace=wrap;html=1;fontStyle=1;strokeWidth=1;dashed=1;sketch=1;curveFitting=1;jiggle=2;fontSize=14;labelBackgroundColor=none;align=left;spacingBottom=4;spacingTop=4;spacingLeft=4;spacingRight=4;fontFamily=Comic Sans MS;fillColor=#B2C9AB;strokeColor=#B5739D;fontColor=#46495D;" vertex="1" parent="1">
          <mxGeometry x="293.5" y="905" width="120" height="40" as="geometry" />
        </mxCell>
        <mxCell id="uw5OpCNFV-HiSpu1PvvK-58" value="公共样式" style="shape=ext;double=1;rounded=1;whiteSpace=wrap;html=1;fontStyle=1;strokeWidth=1;dashed=1;sketch=1;curveFitting=1;jiggle=2;fontSize=14;labelBackgroundColor=none;align=left;spacingBottom=4;spacingTop=4;spacingLeft=4;spacingRight=4;fontFamily=Comic Sans MS;fillColor=#B2C9AB;strokeColor=#B5739D;fontColor=#46495D;hachureGap=4;fontSource=https%3A%2F%2Ffonts.googleapis.com%2Fcss%3Ffamily%3DArchitects%2BDaughter;" vertex="1" parent="1">
          <mxGeometry x="477" y="875" width="80" height="40" as="geometry" />
        </mxCell>
        <mxCell id="uw5OpCNFV-HiSpu1PvvK-61" value="组件样式" style="shape=ext;double=1;rounded=1;whiteSpace=wrap;html=1;fontStyle=1;strokeWidth=1;dashed=1;sketch=1;curveFitting=1;jiggle=2;fontSize=14;labelBackgroundColor=none;align=left;spacingBottom=4;spacingTop=4;spacingLeft=4;spacingRight=4;fontFamily=Comic Sans MS;fillColor=#B2C9AB;strokeColor=#B5739D;fontColor=#46495D;hachureGap=4;fontSource=https%3A%2F%2Ffonts.googleapis.com%2Fcss%3Ffamily%3DArchitects%2BDaughter;" vertex="1" parent="1">
          <mxGeometry x="477" y="935" width="80" height="40" as="geometry" />
        </mxCell>
        <mxCell id="uw5OpCNFV-HiSpu1PvvK-64" value="自动生成路由（类型、参数配置、其他）" style="shape=ext;double=1;rounded=1;whiteSpace=wrap;html=1;fontStyle=1;strokeWidth=1;dashed=1;sketch=1;curveFitting=1;jiggle=2;fontSize=14;labelBackgroundColor=none;align=left;spacingBottom=4;spacingTop=4;spacingLeft=4;spacingRight=4;fontFamily=Comic Sans MS;fillColor=#B2C9AB;strokeColor=#B5739D;fontColor=#46495D;hachureGap=4;fontSource=https%3A%2F%2Ffonts.googleapis.com%2Fcss%3Ffamily%3DArchitects%2BDaughter;" vertex="1" parent="1">
          <mxGeometry x="447" y="1260" width="280" height="65" as="geometry" />
        </mxCell>
        <mxCell id="uw5OpCNFV-HiSpu1PvvK-83" style="edgeStyle=orthogonalEdgeStyle;rounded=0;sketch=1;hachureGap=4;jiggle=2;curveFitting=1;orthogonalLoop=1;jettySize=auto;html=1;exitX=1;exitY=0.5;exitDx=0;exitDy=0;entryX=0;entryY=0.25;entryDx=0;entryDy=0;strokeColor=#B5739D;fontFamily=Architects Daughter;fontSource=https%3A%2F%2Ffonts.googleapis.com%2Fcss%3Ffamily%3DArchitects%2BDaughter;fontSize=16;fontColor=#46495D;fillColor=#B2C9AB;curved=1;" edge="1" parent="1" source="uw5OpCNFV-HiSpu1PvvK-81" target="uw5OpCNFV-HiSpu1PvvK-9">
          <mxGeometry relative="1" as="geometry" />
        </mxCell>
        <mxCell id="uw5OpCNFV-HiSpu1PvvK-84" style="edgeStyle=orthogonalEdgeStyle;rounded=0;sketch=1;hachureGap=4;jiggle=2;curveFitting=1;orthogonalLoop=1;jettySize=auto;html=1;exitX=1;exitY=0.5;exitDx=0;exitDy=0;entryX=0;entryY=0.5;entryDx=0;entryDy=0;strokeColor=#B5739D;fontFamily=Architects Daughter;fontSource=https%3A%2F%2Ffonts.googleapis.com%2Fcss%3Ffamily%3DArchitects%2BDaughter;fontSize=16;fontColor=#46495D;fillColor=#B2C9AB;curved=1;" edge="1" parent="1" source="uw5OpCNFV-HiSpu1PvvK-81" target="uw5OpCNFV-HiSpu1PvvK-11">
          <mxGeometry relative="1" as="geometry" />
        </mxCell>
        <mxCell id="uw5OpCNFV-HiSpu1PvvK-81" value="后期" style="whiteSpace=wrap;html=1;fontFamily=Comic Sans MS;align=left;fillColor=none;rounded=1;fontStyle=1;strokeWidth=1;dashed=1;sketch=1;curveFitting=1;jiggle=2;labelBackgroundColor=none;spacingBottom=4;spacingTop=4;spacingLeft=4;spacingRight=4;hachureGap=4;fontSource=https%3A%2F%2Ffonts.googleapis.com%2Fcss%3Ffamily%3DArchitects%2BDaughter;fontSize=20;strokeColor=#B5739D;" vertex="1" parent="1">
          <mxGeometry x="297" y="1480" width="120" height="60" as="geometry" />
        </mxCell>
        <mxCell id="uw5OpCNFV-HiSpu1PvvK-109" value="" style="group" vertex="1" connectable="0" parent="1">
          <mxGeometry x="20" y="20" width="140" height="250" as="geometry" />
        </mxCell>
        <mxCell id="uw5OpCNFV-HiSpu1PvvK-104" value="" style="whiteSpace=wrap;html=1;sketch=1;hachureGap=4;jiggle=2;curveFitting=1;strokeColor=#B5739D;fontFamily=Architects Daughter;fontSource=https%3A%2F%2Ffonts.googleapis.com%2Fcss%3Ffamily%3DArchitects%2BDaughter;fontSize=20;fontColor=#46495D;fillColor=#B2C9AB;" vertex="1" parent="uw5OpCNFV-HiSpu1PvvK-109">
          <mxGeometry width="130" height="250" as="geometry" />
        </mxCell>
        <mxCell id="uw5OpCNFV-HiSpu1PvvK-95" value="组件可自定义" style="whiteSpace=wrap;html=1;fontSize=14;align=left;rounded=1;fontStyle=1;strokeWidth=1;dashed=1;sketch=1;curveFitting=1;jiggle=2;labelBackgroundColor=none;spacingBottom=4;spacingTop=4;spacingLeft=4;spacingRight=4;hachureGap=4;fontFamily=Comic Sans MS;fillColor=#B2C9AB;strokeColor=#B5739D;fontColor=#46495D;" vertex="1" parent="uw5OpCNFV-HiSpu1PvvK-109">
          <mxGeometry x="10" y="20" width="110" height="60" as="geometry" />
        </mxCell>
        <mxCell id="uw5OpCNFV-HiSpu1PvvK-96" value="容器可以嵌套" style="whiteSpace=wrap;html=1;fontSize=14;align=left;rounded=1;fontStyle=1;strokeWidth=1;dashed=1;sketch=1;curveFitting=1;jiggle=2;labelBackgroundColor=none;spacingBottom=4;spacingTop=4;spacingLeft=4;spacingRight=4;hachureGap=4;fontFamily=Comic Sans MS;fillColor=#B2C9AB;strokeColor=#B5739D;fontColor=#46495D;" vertex="1" parent="uw5OpCNFV-HiSpu1PvvK-109">
          <mxGeometry x="10" y="95" width="110" height="60" as="geometry" />
        </mxCell>
        <mxCell id="uw5OpCNFV-HiSpu1PvvK-97" value="布局可以层级" style="whiteSpace=wrap;html=1;fontSize=14;align=left;rounded=1;fontStyle=1;strokeWidth=1;dashed=1;sketch=1;curveFitting=1;jiggle=2;labelBackgroundColor=none;spacingBottom=4;spacingTop=4;spacingLeft=4;spacingRight=4;hachureGap=4;fontFamily=Comic Sans MS;fillColor=#B2C9AB;strokeColor=#B5739D;fontColor=#46495D;" vertex="1" parent="uw5OpCNFV-HiSpu1PvvK-109">
          <mxGeometry x="10" y="175" width="110" height="60" as="geometry" />
        </mxCell>
        <mxCell id="uw5OpCNFV-HiSpu1PvvK-107" value="" style="verticalLabelPosition=bottom;verticalAlign=top;html=1;shape=mxgraph.basic.tick;sketch=1;hachureGap=4;jiggle=2;curveFitting=1;fontFamily=Architects Daughter;fontSource=https%3A%2F%2Ffonts.googleapis.com%2Fcss%3Ffamily%3DArchitects%2BDaughter;fontSize=20;fillColor=#f8cecc;gradientColor=#ea6b66;strokeColor=#B5739D;" vertex="1" parent="uw5OpCNFV-HiSpu1PvvK-109">
          <mxGeometry x="80" y="30" width="60" height="50" as="geometry" />
        </mxCell>
      </root>
    </mxGraphModel>
  </diagram>
</mxfile>
